<svg width="424" height="374" viewBox="0 50 424 325" fill="none" xmlns="http://www.w3.org/2000/svg"><path d="M311.85 138.809C315.261 117.022 294.424 99.1201 273.017 104.417C253.055 109.356 231.877 113.424 221.252 111.76C210.626 110.097 191.705 99.752 174.207 88.9488C155.443 77.3636 130.132 88.0414 126.722 109.828L111.501 207.056C103.499 258.177 138.453 306.107 189.575 314.11C240.697 322.113 288.627 287.158 296.63 236.036L311.85 138.809Z" fill="#58CC02"/><path fill-rule="evenodd" clip-rule="evenodd" d="M212.444 136.864C200.663 145.606 182.739 142.8 173.036 130.695C163.332 118.589 165.317 191.138 165.345 190.957C165.359 190.87 171.414 191.792 183.51 193.724C186.753 194.242 192.594 195.181 201.033 196.543C216.495 150.929 220.299 131.036 212.444 136.864Z" fill="#89E219"/><path d="M153.125 100.307L175.772 135.135C176.986 137.002 176.032 139.512 173.889 140.091C163.589 142.878 152.48 138.657 146.497 129.456C140.514 120.255 141.144 108.361 147.842 100.036C149.236 98.3031 151.912 98.4406 153.125 100.307Z" fill="#8EE000"/><path d="M136.014 105.091L158.661 139.918C159.874 141.785 158.921 144.295 156.777 144.875C146.477 147.661 135.368 143.441 129.385 134.239C123.402 125.038 124.032 113.144 130.73 104.819C132.125 103.086 134.8 103.224 136.014 105.091Z" fill="#8EE000"/><path d="M240.304 113.87L209.044 139.594C207.369 140.973 207.527 143.575 209.357 144.732C218.15 150.295 229.737 149.597 237.996 142.801C246.255 136.005 249.131 124.8 245.31 115.147C244.514 113.138 241.98 112.491 240.304 113.87Z" fill="#89E219"/><path d="M255.416 123.81L226.009 148.009C224.433 149.307 224.582 151.754 226.304 152.843C234.575 158.076 245.475 157.42 253.245 151.026C261.014 144.633 263.72 134.092 260.125 125.011C259.377 123.121 256.993 122.513 255.416 123.81Z" fill="#89E219"/><path d="M271.74 173.146C274.95 152.637 260.928 133.41 240.419 130.199V130.199C219.911 126.989 200.683 141.011 197.473 161.52L194.609 179.817C191.398 200.325 205.421 219.553 225.929 222.763V222.763C246.437 225.974 265.665 211.951 268.875 191.443L271.74 173.146Z" fill="#89E219"/><rect width="67.0004" height="67.0004" rx="33.5002" transform="matrix(-0.987968 -0.15466 -0.15466 0.987968 264.701 147.461)" fill="white"/><path fill-rule="evenodd" clip-rule="evenodd" d="M123.759 128.753C129.831 119.767 140.737 114.595 152.16 116.383C167.913 118.849 178.684 133.618 176.218 149.371L170.658 184.89C168.192 200.642 153.423 211.413 137.67 208.947C126.247 207.159 117.443 198.901 114.407 188.49L123.759 128.753Z" fill="#89E219"/><rect width="56.6507" height="67.0004" rx="28.3254" transform="matrix(-0.987968 -0.15466 -0.15466 0.987968 180.209 134.234)" fill="white"/><rect width="51.9387" height="52.5879" rx="25.9694" transform="matrix(-0.987968 -0.15466 -0.15466 0.987968 253.031 151.306)" fill="#4B4B4B"/><rect width="47.0643" height="51.2304" rx="23.5321" transform="matrix(-0.987968 -0.15466 -0.15466 0.987968 177.607 138.756)" fill="#4B4B4B"/><rect width="25.6018" height="54.4719" rx="12.8009" transform="matrix(-0.987968 -0.15466 -0.15466 0.987968 197.148 180.994)" fill="#F49000"/><path d="M189.596 194.409C190.855 189.267 187.445 184.149 182.215 183.33V183.33C177.283 182.558 172.659 185.93 171.887 190.862L167.496 218.913C166.828 223.177 169.735 227.178 173.997 227.86V227.86C178.025 228.504 181.873 225.95 182.843 221.988L189.596 194.409Z" fill="#B06800"/><path d="M164.076 190.163C163.882 190.634 164.07 191.171 164.501 191.444L170.732 195.377L199.062 196.635C199.696 196.664 200.223 196.144 200.162 195.512C199.358 187.178 193.013 180.119 184.359 178.764C175.6 177.393 167.308 182.309 164.076 190.163Z" fill="#FFC200"/><path d="M186.686 184.642C185.564 183.934 182.312 183.044 179.69 183.547" stroke="#FFDE00" stroke-width="5.44719" stroke-linecap="round" stroke-linejoin="round"/><rect width="3.81303" height="9.26021" transform="matrix(-0.987968 -0.15466 -0.15466 0.987968 129 119.925)" fill="#89E219"/><path d="M206.928 176.635C207.45 178.935 209.705 183.898 214.554 185.35" stroke="white" stroke-width="10.3497" stroke-linecap="round" stroke-linejoin="round"/><path d="M136.66 164.106C137.181 166.406 139.436 171.369 144.286 172.822" stroke="white" stroke-width="10.3497" stroke-linecap="round" stroke-linejoin="round"/><circle r="35.6791" transform="matrix(-1 0 0 1 134.753 253.712)" fill="#58CC02"/><path fill-rule="evenodd" clip-rule="evenodd" d="M139.261 289.226C141.237 291.121 143.298 292.932 145.44 294.653C149.806 292.366 153.85 289.817 157.52 287.089C166.479 280.431 173.369 272.59 177.241 264.686C181.099 256.811 182.15 248.399 178.441 241.223C177.394 239.197 175.893 237.652 173.98 236.67C172.117 235.715 170.107 235.419 168.188 235.454C164.477 235.522 160.335 236.862 156.486 238.317C154.632 239.018 152.91 239.717 151.216 240.405L151.216 240.405C149.036 241.29 146.902 242.156 144.591 242.984C140.668 244.389 137.267 245.269 134.481 245.269C128.334 245.269 123.041 243.486 118.713 239.502C115.526 236.569 112.686 232.278 110.471 226.22C110.783 232.595 111.745 238.842 113.301 244.882C113.383 244.96 113.465 245.036 113.548 245.113C119.501 250.593 126.737 252.895 134.481 252.895C138.64 252.895 143.069 251.63 147.163 250.163C149.455 249.342 152.003 248.313 154.415 247.339C156.119 246.651 157.754 245.991 159.183 245.451C163.026 243.998 166.067 243.12 168.328 243.079C169.395 243.059 170.068 243.235 170.5 243.456C170.881 243.652 171.285 243.987 171.666 244.724C173.88 249.009 173.622 254.737 170.392 261.331C167.177 267.895 161.202 274.851 152.971 280.968C148.888 284.003 144.29 286.802 139.261 289.226Z" fill="#4EB800"/><path d="M191.131 265.152L196.851 255.891L192.765 242.001L187.046 239.822H177.513C176.86 239.822 174.154 241.82 172.883 242.818V251.261L175.062 259.432L180.509 269.782L191.131 265.152Z" fill="#58CC02"/><path d="M242.879 242.973C238.644 245.508 229.218 249.082 215.327 249.082C201.437 249.082 180.465 231.923 174.755 242.973C166.777 258.41 185.038 283.563 215.327 295.471C230.179 301.066 245.512 297.802 251.323 295.471" stroke="#4EB800" stroke-width="7.62606" stroke-linecap="round" stroke-linejoin="round"/><path d="M110.513 227.566C107.517 237.916 109.968 241.729 113.509 244.997L113.781 242.273L112.692 235.192C112.328 233.739 111.384 230.181 110.513 227.566Z" fill="#4EB800"/><circle r="7.08134" transform="matrix(-1 0 0 1 217.822 161.383)" fill="white"/><circle r="6.53662" transform="matrix(-1 0 0 1 143.741 148.854)" fill="white"/><path fill-rule="evenodd" clip-rule="evenodd" d="M249.27 174.936C250.159 164.742 245.021 155.231 236.627 150.204C231.949 152.438 228.717 157.214 228.717 162.745C228.717 170.416 234.936 176.635 242.607 176.635C245.021 176.635 247.292 176.019 249.27 174.936Z" fill="white"/><path fill-rule="evenodd" clip-rule="evenodd" d="M174.387 158C174.602 148.728 169.313 140.291 161.172 136.326C156.68 138.313 153.546 142.809 153.546 148.037C153.546 155.107 159.278 160.838 166.347 160.838C169.392 160.838 172.189 159.775 174.387 158Z" fill="white"/><path fill-rule="evenodd" clip-rule="evenodd" d="M169.647 225.614C170.779 226.769 172.278 227.584 173.997 227.859C178.025 228.504 181.873 225.949 182.843 221.987L185.523 211.04C177.541 211.831 171.094 217.844 169.647 225.614Z" fill="#FFB8D1"/><path d="M257.451 194.62L211.289 208.536L211.936 210.682C213.759 216.731 220.141 220.156 226.19 218.333L250.448 211.02C256.497 209.197 259.922 202.815 258.098 196.766L257.451 194.62Z" fill="#89E219"/><rect opacity="0.62" width="14.5738" height="14.5738" rx="2.17887" transform="matrix(-0.707107 -0.707107 -0.707107 0.707107 105.611 104.821)" fill="#14C3FB"/><rect opacity="0.5" width="14.5738" height="14.5738" rx="2.17887" transform="matrix(-0.707107 -0.707107 -0.707107 0.707107 214.554 51.3052)" fill="#FF68D5"/><rect opacity="0.5" width="26.6084" height="26.6084" rx="7.08134" transform="matrix(-0.707107 -0.707107 -0.707107 0.707107 334.937 67.647)" fill="#14C3FB"/><rect opacity="0.68" width="13.6894" height="13.6894" rx="2.17887" transform="matrix(-0.707107 -0.707106 -0.707107 0.707106 339 113.198)" fill="#FFC200"/><rect opacity="0.5" width="9.9203" height="9.9203" rx="2.17887" transform="matrix(-0.707107 -0.707107 -0.707107 0.707107 119.184 81.2642)" fill="#FFC200"/><path d="M197.346 339.264C201.117 348.806 203.425 354.636 209.666 360.182" stroke="#F49000" stroke-width="23.0108" stroke-linecap="round"/><path d="M195.825 339.264C192.054 348.806 189.746 354.636 183.505 360.182" stroke="#F49000" stroke-width="23.0108" stroke-linecap="round"/><rect x="135" y="372" width="119" height="11" rx="5.5" fill="#E5E5E5"/></svg>